<svg style="background-color:#ffffff00" xmlns="http://www.w3.org/2000/svg" width="28" height="27"><path d="M21.999 27h-16c-4.746 0-6-3.27-6-5v-12c0-.552.448-1 1-1s1 .448 1 1v12c.006.299.166 3 4 3h16c.161-.001 4-.057 4-3v-12c0-.552.448-1 1-1s1 .448 1 1v12c0 3.955-3.925 5-6 5zm-3.707-20.293l-3.293-3.293v16.586c0 .552-.448 1-1 1s-1-.448-1-1v-16.586l-3.293 3.293c-.379.377-1.035.377-1.414 0-.39-.39-.39-1.024 0-1.414l5.707-5.707 5.707 5.707c.39.39.39 1.024 0 1.414-.379.377-1.035.377-1.414 0z" fill="#edba22"/></svg>