<svg style="background-color:#ffffff00" xmlns="http://www.w3.org/2000/svg" width="32" height="32"><path d="M28.999 17.859v14.141h-1.936v-14.122c-1.755-.423-3.064-1.993-3.064-3.878s1.309-3.455 3.064-3.878v-10.122h1.936v10.141c1.722.446 3 1.997 3 3.859 0 1.862-1.278 3.413-3 3.859zm-1-5.859c-1.103 0-2 .897-2 2s.897 2 2 2 2-.897 2-2-.897-2-2-2zm-11 11.859v8.141h-1.936v-8.122c-1.755-.423-3.064-1.993-3.064-3.878s1.309-3.455 3.064-3.878v-16.122h1.936v16.141c1.722.446 3 1.997 3 3.859 0 1.862-1.278 3.413-3 3.859zm-1-5.859c-1.103 0-2 .897-2 2s.897 2 2 2 2-.897 2-2-.897-2-2-2zm-11-4.141v18.141h-1.936v-18.121c-1.755-.423-3.064-1.993-3.064-3.879 0-1.885 1.309-3.455 3.064-3.878v-6.122h1.936v6.141c1.722.446 3 1.997 3 3.859 0 1.862-1.278 3.413-3 3.859zm-1-5.859c-1.103 0-2 .897-2 2s.897 2 2 2 2-.897 2-2-.897-2-2-2z" fill="#8840a7"/></svg>