<svg style="background-color:#ffffff00" xmlns="http://www.w3.org/2000/svg" width="32" height="32"><path d="M16 32c-8.84 0-16-7.164-16-16s7.16-16 16-16c8.836 0 16 7.164 16 16s-7.164 16-16 16zm0-30c-7.72 0-14 6.28-14 14s6.28 14 14 14 14-6.28 14-14-6.28-14-14-14zm11.049 14.01l-.09.01c-.52 0-.95-.39-1-.91-.05-.55.359-1.04.91-1.09.55-.05 1.029.36 1.08.91.05.55-.36 1.04-.9 1.08zm-.74-3.99c-.14.07-.3.11-.45.11-.36 0-.72-.21-.89-.561-.25-.489-.04-1.09.45-1.34.5-.239 1.1-.04 1.34.45.24.5.04 1.101-.45 1.34zm-2.87-3.12c-.239 0-.489-.09-.68-.27-.4-.37-.43-1-.06-1.41.38-.41 1.01-.43 1.42-.059.399.37.43 1.01.06 1.409-.2.221-.47.33-.74.33zm-3.43-2.14c-.12 0-.24-.03-.361-.07-.52-.21-.769-.79-.569-1.3.2-.51.779-.769 1.3-.57.51.211.77.78.56 1.301-.149.39-.529.64-.93.64zm-3.96-.76h-.049c-.55 0-1-.45-1-1s.45-1 1-1h.049c.55 0 1 .45 1 1-.01.55-.45 1-1 1zm-3.66.67c-.12.05-.24.07-.359.07-.4 0-.78-.25-.931-.641-.2-.51.05-1.09.57-1.29.51-.21 1.09.05 1.29.57.2.51-.061 1.09-.57 1.29zm-3.8 2.2c-.271 0-.54-.11-.74-.33-.37-.41-.34-1.04.07-1.41.41-.38 1.04-.35 1.41.06.37.41.35 1.04-.061 1.41-.2.181-.439.271-.68.271zm-2.44 3.22c-.149 0-.3-.03-.439-.11-.5-.239-.7-.84-.45-1.34.25-.49.85-.69 1.34-.45.49.25.691.851.45 1.351-.18.35-.53.55-.9.55zm-.109 2.979c-.05.521-.481.91-.99.91l-.09-.01c-.561-.05-.96-.54-.91-1.09.05-.55.54-.95 1.09-.9.55.051.95.54.9 1.09zm9.962-5.069c.443 0 .833.292.959.717 1.206 4.081 2.644 9.216 2.641 10.503.002.959-.37 1.861-1.048 2.541-.681.683-1.586 1.06-2.552 1.061-1.981-.005-3.597-1.62-3.601-3.603 0-1.287 1.437-6.421 2.642-10.502.125-.425.516-.717.959-.717zm.003 13.822c.694-.001 1.349-.273 1.841-.767.489-.491.758-1.142.756-1.833.002-1.073-1.309-5.856-2.6-10.222-1.29 4.367-2.601 9.15-2.601 10.219.003 1.43 1.171 2.6 2.604 2.603z" fill="#226bab"/></svg>