<svg width="908" height="191" xmlns="http://www.w3.org/2000/svg" xmlns:sketch="http://www.bohemiancoding.com/sketch/ns"><title>Slice 1</title><g sketch:type="MSLayerGroup" transform="translate(1)" fill="#fff"><rect opacity=".4" sketch:type="MSShapeGroup" x="151.7" y=".565" width="1.2" height="53.435"/><path d="M35.3 54c-2.116-6.05-4.471-12.099-7.066-18.149-2.595-6.05-5.403-11.766-8.426-17.149l-8.313 35.297h-11.563l12.545-53.292h8.993c1.159 1.794 2.406 3.909 3.741 6.344 1.335 2.435 2.708 5.063 4.119 7.882 1.411 2.82 2.821 5.755 4.232 8.805s2.746 6.062 4.005 9.036l7.482-32.068h11.714l-12.621 53.292h-8.842zm41.876-53.907c3.376 0 6.323.41 8.842 1.23 2.519.82 4.61 1.923 6.272 3.307 1.663 1.384 2.897 3.012 3.703 4.883s1.209 3.832 1.209 5.883c0 1.692-.189 3.358-.567 4.999-.378 1.641-1.083 3.204-2.116 4.691-1.033 1.487-2.418 2.858-4.156 4.114-1.738 1.256-3.968 2.32-6.688 3.191 1.411 2.666 2.859 5.896 4.345 9.689 1.486 3.794 2.884 7.767 4.194 11.92h-12.621c-1.159-3.537-2.33-7.036-3.514-10.497-1.184-3.461-2.506-6.447-3.968-8.959h-5.895l-4.61 19.456h-11.714l12.318-52.523c2.721-.513 5.366-.872 7.935-1.077 2.569-.205 4.912-.308 7.028-.308zm-.378 10.151c-.856 0-1.738.026-2.645.077-.907.051-1.663.103-2.267.154l-3.401 14.611h4.005c2.418 0 4.459-.231 6.121-.692 1.663-.461 2.998-1.077 4.005-1.846 1.008-.769 1.726-1.653 2.154-2.653.428-1 .642-2.012.642-3.038 0-.872-.126-1.705-.378-2.499-.252-.795-.705-1.5-1.36-2.115-.655-.615-1.537-1.102-2.645-1.461s-2.519-.538-4.232-.538zm65.757-9.536l-2.418 10.074h-15.341l-10.202 43.218h-11.789l10.202-43.218h-15.341l2.418-10.074h42.472z" sketch:type="MSShapeGroup"/><path d="M163.91 2.104c.14 0 .243.018.31.053.067.036.144.108.23.217l6.688 8.855-.032-.414-.008-.389v-8.322h1.37v11.749h-.79c-.124 0-.227-.022-.31-.066-.083-.044-.165-.118-.246-.221l-6.68-8.847.024.402.008.361v8.371h-1.37v-11.749h.806zm20.877 11.749h-1.209c-.14 0-.252-.036-.338-.107-.086-.071-.15-.161-.193-.271l-1.08-2.837h-5.181l-1.08 2.837c-.038.098-.102.186-.193.262-.091.077-.204.115-.338.115h-1.209l4.617-11.749h1.587l4.617 11.749zm-7.566-4.362h4.311l-1.813-4.78c-.118-.295-.234-.664-.346-1.107l-.173.619-.165.496-1.813 4.772zm16.888-7.387v1.336h-3.731v10.413h-1.563v-10.413h-3.747v-1.336h9.04zm3.497 11.749h-1.563v-11.749h1.563v11.749zm13.818-5.87c0 .88-.137 1.688-.411 2.423-.274.735-.661 1.368-1.16 1.898-.5.53-1.1.942-1.801 1.234-.701.292-1.476.439-2.325.439-.849 0-1.622-.146-2.321-.439-.698-.292-1.297-.704-1.797-1.234s-.886-1.163-1.16-1.898c-.274-.735-.411-1.543-.411-2.423 0-.88.137-1.688.411-2.423.274-.735.661-1.369 1.16-1.902.5-.533 1.098-.947 1.797-1.242.698-.295 1.472-.443 2.321-.443.849 0 1.624.148 2.325.443.701.295 1.301.709 1.801 1.242s.886 1.167 1.16 1.902c.274.735.411 1.543.411 2.423zm-1.603 0c0-.722-.097-1.369-.29-1.943-.193-.574-.467-1.059-.822-1.455-.355-.396-.784-.701-1.289-.914-.505-.213-1.069-.32-1.692-.32-.618 0-1.179.107-1.684.32-.505.213-.936.518-1.293.914-.357.396-.632.881-.826 1.455-.193.574-.29 1.222-.29 1.943 0 .722.097 1.368.29 1.939.193.571.469 1.055.826 1.451.357.396.788.7 1.293.91.505.21 1.066.316 1.684.316.623 0 1.187-.105 1.692-.316.505-.21.935-.514 1.289-.91.355-.396.628-.88.822-1.451.193-.571.29-1.218.29-1.939zm4.544-5.879c.14 0 .243.018.31.053.067.036.144.108.23.217l6.688 8.855-.032-.414-.008-.389v-8.322h1.37v11.749h-.79c-.124 0-.227-.022-.31-.066-.083-.044-.165-.118-.246-.221l-6.68-8.847.024.402.008.361v8.371h-1.37v-11.749h.806zm20.877 11.749h-1.209c-.14 0-.252-.036-.338-.107-.086-.071-.15-.161-.193-.271l-1.08-2.837h-5.181l-1.08 2.837c-.038.098-.102.186-.193.262-.091.077-.204.115-.338.115h-1.209l4.617-11.749h1.587l4.617 11.749zm-7.566-4.362h4.311l-1.813-4.78c-.118-.295-.234-.664-.346-1.107l-.173.619-.165.496-1.813 4.772zm10.587 3.025h4.996v1.336h-6.559v-11.749h1.563v10.413zm-73.443 15.941v4.903h-1.555v-11.749h3.263c.731 0 1.362.075 1.893.225.532.15.971.368 1.317.652.346.284.603.627.769 1.029.167.402.25.851.25 1.349 0 .415-.064.803-.193 1.164-.129.361-.316.685-.56.972-.244.287-.543.532-.894.734-.352.202-.751.355-1.197.459.193.115.365.281.516.5l3.368 4.665h-1.386c-.285 0-.494-.112-.628-.336l-2.997-4.198c-.091-.131-.191-.225-.298-.283-.107-.057-.269-.086-.483-.086h-1.184zm0-1.156h1.636c.457 0 .858-.056 1.205-.168.346-.112.637-.271.87-.476.234-.205.41-.45.528-.734.118-.284.177-.599.177-.943 0-.7-.227-1.227-.681-1.582-.454-.355-1.129-.533-2.026-.533h-1.708v4.436zm15.776-5.69v1.295h-5.543v3.903h4.488v1.246h-4.488v4.009h5.543v1.295h-7.115v-11.749h7.115zm3.964 7.354v4.395h-1.555v-11.749h3.408c.731 0 1.366.086 1.906.258.54.172.987.417 1.342.734.355.317.619.7.794 1.148.175.448.262.948.262 1.5 0 .547-.094 1.047-.282 1.5-.188.454-.463.844-.826 1.172-.363.328-.812.583-1.35.767-.537.183-1.152.275-1.845.275h-1.853zm0-1.263h1.853c.446 0 .839-.06 1.18-.18.341-.12.627-.288.858-.504.231-.216.406-.474.524-.775.118-.301.177-.631.177-.992 0-.749-.227-1.334-.681-1.755-.454-.421-1.14-.631-2.059-.631h-1.853v4.837zm18.854-.213c0 .88-.137 1.688-.411 2.423-.274.735-.661 1.368-1.16 1.898-.5.53-1.1.942-1.801 1.234-.701.292-1.476.439-2.325.439-.849 0-1.622-.146-2.321-.439-.698-.292-1.297-.704-1.797-1.234s-.886-1.163-1.16-1.898c-.274-.735-.411-1.543-.411-2.423 0-.88.137-1.688.411-2.423.274-.735.661-1.369 1.16-1.902.5-.533 1.098-.947 1.797-1.242.698-.295 1.472-.443 2.321-.443.849 0 1.624.148 2.325.443.701.295 1.301.709 1.801 1.242s.886 1.167 1.16 1.902c.274.735.411 1.543.411 2.423zm-1.603 0c0-.722-.097-1.369-.29-1.943-.193-.574-.467-1.059-.822-1.455-.355-.396-.784-.701-1.289-.914-.505-.213-1.069-.32-1.692-.32-.618 0-1.179.107-1.684.32-.505.213-.936.518-1.293.914-.357.396-.632.881-.826 1.455-.193.574-.29 1.222-.29 1.943 0 .722.097 1.368.29 1.939.193.571.469 1.055.826 1.451.357.396.788.7 1.293.91.505.21 1.066.316 1.684.316.623 0 1.187-.105 1.692-.316.505-.21.935-.514 1.289-.91.355-.396.628-.88.822-1.451.193-.571.29-1.218.29-1.939zm5.455.967v4.903h-1.555v-11.749h3.263c.731 0 1.362.075 1.893.225.532.15.971.368 1.317.652.346.284.603.627.769 1.029.167.402.25.851.25 1.349 0 .415-.064.803-.193 1.164-.129.361-.316.685-.56.972-.244.287-.543.532-.894.734-.352.202-.751.355-1.197.459.193.115.365.281.516.5l3.368 4.665h-1.386c-.285 0-.494-.112-.628-.336l-2.997-4.198c-.091-.131-.191-.225-.298-.283-.107-.057-.269-.086-.483-.086h-1.184zm0-1.156h1.636c.457 0 .858-.056 1.205-.168.346-.112.637-.271.87-.476.234-.205.41-.45.528-.734.118-.284.177-.599.177-.943 0-.7-.227-1.227-.681-1.582-.454-.355-1.129-.533-2.026-.533h-1.708v4.436zm16.526-5.69v1.336h-3.731v10.413h-1.563v-10.413h-3.747v-1.336h9.04zm3.497 11.749h-1.563v-11.749h1.563v11.749zm3.9-11.749c.14 0 .243.018.31.053.067.036.144.108.23.217l6.688 8.855-.032-.414-.008-.389v-8.322h1.37v11.749h-.79c-.124 0-.227-.022-.31-.066-.083-.044-.165-.118-.246-.221l-6.68-8.847.024.402.008.361v8.371h-1.37v-11.749h.806zm16.526 10.593c.312 0 .598-.015.858-.045.261-.03.506-.075.737-.135.231-.06.449-.133.653-.217.204-.085.408-.182.612-.291v-2.591h-1.789c-.102 0-.184-.03-.246-.09s-.093-.134-.093-.221v-.902h3.545v4.509c-.29.213-.592.399-.906.558-.314.159-.65.291-1.007.398-.357.107-.74.186-1.148.238-.408.052-.851.078-1.329.078-.838 0-1.606-.146-2.304-.439-.698-.292-1.3-.702-1.805-1.23-.505-.527-.898-1.16-1.18-1.898-.282-.738-.423-1.55-.423-2.435 0-.896.138-1.714.415-2.451.277-.738.671-1.371 1.184-1.898.513-.527 1.133-.936 1.861-1.226.728-.29 1.543-.435 2.445-.435.457 0 .881.034 1.273.102.392.068.756.167 1.092.295.336.128.646.284.931.467.285.183.551.389.798.619l-.443.722c-.091.148-.209.221-.355.221-.086 0-.18-.03-.282-.09l-.451-.279c-.167-.109-.369-.215-.608-.316s-.521-.187-.846-.258c-.325-.071-.71-.107-1.156-.107-.65 0-1.238.108-1.765.324-.526.216-.975.525-1.346.926-.371.402-.655.888-.854 1.459-.199.571-.298 1.212-.298 1.923 0 .743.103 1.406.31 1.988.207.582.498 1.075.874 1.48.376.404.822.713 1.338.926.516.213 1.085.32 1.708.32zm-76.746 8.915v1.336h-3.731v10.413h-1.563v-10.413h-3.747v-1.336h9.04zm12.368 5.879c0 .88-.137 1.688-.411 2.423-.274.735-.661 1.368-1.16 1.898-.5.53-1.1.942-1.801 1.234-.701.292-1.476.439-2.325.439-.849 0-1.622-.146-2.321-.439-.698-.292-1.297-.704-1.797-1.234s-.886-1.163-1.16-1.898c-.274-.735-.411-1.543-.411-2.423 0-.88.137-1.688.411-2.423.274-.735.661-1.369 1.16-1.902.5-.533 1.098-.947 1.797-1.242.698-.295 1.472-.443 2.321-.443.849 0 1.624.148 2.325.443.701.295 1.301.709 1.801 1.242s.886 1.167 1.16 1.902c.274.735.411 1.543.411 2.423zm-1.603 0c0-.722-.097-1.369-.29-1.943-.193-.574-.467-1.059-.822-1.455-.355-.396-.784-.701-1.289-.914-.505-.213-1.069-.32-1.692-.32-.618 0-1.179.107-1.684.32-.505.213-.936.518-1.293.914-.357.396-.632.881-.826 1.455-.193.574-.29 1.222-.29 1.943 0 .722.097 1.368.29 1.939.193.571.469 1.055.826 1.451.357.396.788.7 1.293.91.505.21 1.066.316 1.684.316.623 0 1.187-.105 1.692-.316.505-.21.935-.514 1.289-.91.355-.396.628-.88.822-1.451.193-.571.29-1.218.29-1.939zm14.463 0c0 .88-.137 1.688-.411 2.423-.274.735-.661 1.368-1.16 1.898-.5.53-1.1.942-1.801 1.234-.701.292-1.476.439-2.325.439-.849 0-1.622-.146-2.321-.439-.698-.292-1.297-.704-1.797-1.234s-.886-1.163-1.16-1.898c-.274-.735-.411-1.543-.411-2.423 0-.88.137-1.688.411-2.423.274-.735.661-1.369 1.16-1.902.5-.533 1.098-.947 1.797-1.242.698-.295 1.472-.443 2.321-.443.849 0 1.624.148 2.325.443.701.295 1.301.709 1.801 1.242s.886 1.167 1.16 1.902c.274.735.411 1.543.411 2.423zm-1.603 0c0-.722-.097-1.369-.29-1.943-.193-.574-.467-1.059-.822-1.455-.355-.396-.784-.701-1.289-.914-.505-.213-1.069-.32-1.692-.32-.618 0-1.179.107-1.684.32-.505.213-.936.518-1.293.914-.357.396-.632.881-.826 1.455-.193.574-.29 1.222-.29 1.943 0 .722.097 1.368.29 1.939.193.571.469 1.055.826 1.451.357.396.788.7 1.293.91.505.21 1.066.316 1.684.316.623 0 1.187-.105 1.692-.316.505-.21.935-.514 1.289-.91.355-.396.628-.88.822-1.451.193-.571.29-1.218.29-1.939zm5.302 4.534h4.996v1.336h-6.559v-11.749h1.563v10.413zm8.436-5.264h.588c.204 0 .367-.026.487-.078.121-.052.235-.141.342-.266l3.843-4.427c.118-.137.232-.234.342-.291.11-.057.251-.086.423-.086h1.329l-4.399 5.059c-.113.126-.219.232-.318.32-.099.087-.205.159-.318.213.15.049.282.123.395.221.113.098.231.221.355.369l4.593 5.567h-1.354l-.258-.025-.181-.066-.141-.107-.129-.139-3.988-4.665-.165-.168-.177-.119-.234-.07-.326-.02h-.709v5.379h-1.555v-11.749h1.555v5.149zm11.111 6.6h-1.563v-11.749h1.563v11.749zm10.958-11.749v1.336h-3.731v10.413h-1.563v-10.413h-3.747v-1.336h9.04z" sketch:type="MSShapeGroup"/></g></svg>