<svg xmlns="http://www.w3.org/2000/svg" width="51.752" height="12.963"><path fill="#3481C3" d="M6.909 12.81c-.133 0-.268-.049-.372-.147l-6.36-5.937-.05-.053-.001-.002-.061-.09-.002-.003c-.041-.077-.063-.163-.063-.256 0-.084.019-.163.052-.233l.001-.002.001-.001.008-.017v-.001l.002-.002v-.001l.001-.002.001-.001v-.001l.002-.003.05-.075.002-.002.042-.046.005-.004 5.938-5.881c.215-.214.561-.21.771.004.212.214.21.559-.004.771l-5.001 4.952h19.333c.301 0 .545.244.545.545 0 .301-.244.545-.545.545h-19.275l5.352 4.998c.22.206.232.551.027.771-.108.115-.253.174-.399.174z"/><path fill="#fff" d="M36.911 12.81c-.133 0-.268-.049-.372-.147l-6.36-5.937-.05-.053-.001-.002-.061-.09-.003-.004c-.041-.077-.063-.163-.063-.255 0-.084.019-.163.052-.233l.001-.002.001-.001.008-.016v-.001l.002-.002v-.002l.001-.002.001-.001v-.001l.002-.003.05-.075.002-.002.041-.047.005-.004 5.939-5.881c.215-.213.56-.209.771.004.212.214.21.559-.004.771l-5.001 4.952h19.333c.301 0 .545.244.545.545 0 .301-.244.545-.545.545h-19.275l5.352 4.998c.22.206.232.551.027.771-.108.116-.252.175-.398.175z"/></svg>