<svg style="background-color:#ffffff00" xmlns="http://www.w3.org/2000/svg" width="32" height="27"><path d="M18.444 26.5c-.553 0-1-.448-1-1s.447-1 1-1c6.371 0 11.555-5.159 11.555-11.5s-5.184-11.5-11.555-11.5c-6.371 0-11.554 5.159-11.554 11.5v1.851l3.133-3.64c.36-.42.993-.466 1.41-.106.419.36.466.992.105 1.41l-5.648 6.562-5.649-6.562c-.361-.418-.314-1.05.105-1.41.416-.36 1.048-.314 1.41.106l3.134 3.64v-1.851c0-7.444 6.08-13.5 13.554-13.5s13.555 6.056 13.555 13.5-6.081 13.5-13.555 13.5zm-.042-20.226c.415 0 .759.312.798.726l.431 5.844 5.367.365c.412.04.724.385.724.8 0 .417-.312.761-.724.803l-7.475.602h-.023c-.277 0-.505-.227-.502-.525l.602-7.891c.042-.414.386-.724.801-.724z" fill="#ee8a1e"/></svg>