<svg style="background-color:#ffffff00" xmlns="http://www.w3.org/2000/svg" width="32" height="32"><path d="M29.999 26h-10v4c0 1.105-.895 2-2 2h-16c-1.105 0-2-.895-2-2v-22c0-1.105.895-2 2-2h10v-4c0-1.105.896-2 2-2h16c1.105 0 2 .895 2 2v22c0 1.105-.895 2-2 2zm-17.723-1h-7.777c-.276 0-.5-.224-.5-.5s.224-.5.5-.5h7.5v-3h-7.5c-.276 0-.5-.224-.5-.5s.224-.5.5-.5h7.5v-3h-7.5c-.276 0-.5-.224-.5-.5s.224-.5.5-.5h7.5v-3h-7.5c-.276 0-.5-.224-.5-.5s.224-.5.5-.5h7.5v-4h-10v22h16v-4h-4c-.738 0-1.376-.405-1.723-1zm17.723-23h-16v22h16v-22zm-13.5 4h11c.276 0 .5.224.5.5s-.224.5-.5.5h-11c-.276 0-.5-.224-.5-.5s.224-.5.5-.5zm0 4h11c.276 0 .5.224.5.5s-.224.5-.5.5h-11c-.276 0-.5-.224-.5-.5s.224-.5.5-.5zm0 4h11c.276 0 .5.224.5.5s-.224.5-.5.5h-11c-.276 0-.5-.224-.5-.5s.224-.5.5-.5zm0 4h11c.276 0 .5.224.5.5s-.224.5-.5.5h-11c-.276 0-.5-.224-.5-.5s.224-.5.5-.5z" fill="#25a24d"/></svg>